<?xml version="1.0" encoding="utf-8"?>
<!-- Generator: Adobe Illustrator 18.0.0, SVG Export Plug-In . SVG Version: 6.00 Build 0)  -->
<!DOCTYPE svg PUBLIC "-//W3C//DTD SVG 1.1//EN" "http://www.w3.org/Graphics/SVG/1.1/DTD/svg11.dtd">
<svg version="1.1" xmlns="http://www.w3.org/2000/svg" xmlns:xlink="http://www.w3.org/1999/xlink" x="0px" y="0px"
	 viewBox="0 0 48 48" enable-background="new 0 0 48 48" xml:space="preserve">
<g id="focus">
	<path fill="none" stroke="#f5f5f5" stroke-width="2" stroke-linecap="round" stroke-linejoin="round" stroke-miterlimit="10" d="
		M45,36v7c0,1.1045685-0.8954315,2-2,2h-7"/>
	<path fill="none" stroke="#f5f5f5" stroke-width="2" stroke-linecap="round" stroke-linejoin="round" stroke-miterlimit="10" d="
		M36,3h7c1.1045685,0,2,0.8954306,2,2v7"/>
	<path fill="none" stroke="#f5f5f5" stroke-width="2" stroke-linecap="round" stroke-linejoin="round" stroke-miterlimit="10" d="
		M3,12V5c0-1.1045694,0.8954306-2,2-2h7"/>
	<path fill="none" stroke="#f5f5f5" stroke-width="2" stroke-linecap="round" stroke-linejoin="round" stroke-miterlimit="10" d="
		M12,45H5c-1.1045694,0-2-0.8954315-2-2v-7"/>
	
		<circle fill="none" stroke="#f5f5f5" stroke-width="2" stroke-linecap="round" stroke-linejoin="round" stroke-miterlimit="10" cx="24" cy="24" r="13"/>
	
		<line fill="none" stroke="#f5f5f5" stroke-width="2" stroke-linecap="round" stroke-linejoin="round" stroke-miterlimit="10" x1="24" y1="6" x2="24" y2="17"/>
	
		<line fill="none" stroke="#f5f5f5" stroke-width="2" stroke-linecap="round" stroke-linejoin="round" stroke-miterlimit="10" x1="24" y1="31" x2="24" y2="42"/>
	
		<line fill="none" stroke="#f5f5f5" stroke-width="2" stroke-linecap="round" stroke-linejoin="round" stroke-miterlimit="10" x1="42" y1="24" x2="31" y2="24"/>
	
		<line fill="none" stroke="#f5f5f5" stroke-width="2" stroke-linecap="round" stroke-linejoin="round" stroke-miterlimit="10" x1="17" y1="24" x2="6" y2="24"/>
</g>
</svg>
